<?xml version="1.0" encoding="UTF-8" standalone="no"?>
<!DOCTYPE svg PUBLIC "-//W3C//DTD SVG 1.1//EN"
 "http://www.w3.org/Graphics/SVG/1.1/DTD/svg11.dtd">
<!-- Generated by graphviz version 2.47.2 (0)
 -->
<!-- Pages: 1 -->
<svg width="214pt" height="260pt"
 viewBox="0.00 0.00 214.24 260.00" xmlns="http://www.w3.org/2000/svg" xmlns:xlink="http://www.w3.org/1999/xlink">
<g id="graph0" class="graph" transform="scale(1 1) rotate(0) translate(4 256)">
<polygon fill="white" stroke="transparent" points="-4,4 -4,-256 210.24,-256 210.24,4 -4,4"/>
<!-- Semigroup -->
<g id="node1" class="node">
<title>Semigroup</title>
<ellipse fill="none" stroke="black" cx="117.09" cy="-234" rx="50.09" ry="18"/>
<text text-anchor="middle" x="117.09" y="-230.3" font-family="Times,serif" font-size="14.00">Semigroup</text>
</g>
<!-- Monoid -->
<g id="node2" class="node">
<title>Monoid</title>
<ellipse fill="none" stroke="black" cx="117.09" cy="-162" rx="38.99" ry="18"/>
<text text-anchor="middle" x="117.09" y="-158.3" font-family="Times,serif" font-size="14.00">Monoid</text>
</g>
<!-- Semigroup&#45;&gt;Monoid -->
<g id="edge1" class="edge">
<title>Semigroup&#45;&gt;Monoid</title>
<path fill="none" stroke="black" d="M117.09,-215.7C117.09,-207.98 117.09,-198.71 117.09,-190.11"/>
<polygon fill="black" stroke="black" points="120.59,-190.1 117.09,-180.1 113.59,-190.1 120.59,-190.1"/>
</g>
<!-- Com_Monoid -->
<g id="node3" class="node">
<title>Com_Monoid</title>
<ellipse fill="none" stroke="black" cx="61.09" cy="-90" rx="61.19" ry="18"/>
<text text-anchor="middle" x="61.09" y="-86.3" font-family="Times,serif" font-size="14.00">Com_Monoid</text>
</g>
<!-- Monoid&#45;&gt;Com_Monoid -->
<g id="edge2" class="edge">
<title>Monoid&#45;&gt;Com_Monoid</title>
<path fill="none" stroke="black" d="M104.11,-144.76C97.21,-136.14 88.59,-125.36 80.88,-115.73"/>
<polygon fill="black" stroke="black" points="83.38,-113.26 74.4,-107.63 77.92,-117.63 83.38,-113.26"/>
</g>
<!-- Group -->
<g id="node4" class="node">
<title>Group</title>
<ellipse fill="none" stroke="black" cx="173.09" cy="-90" rx="33.29" ry="18"/>
<text text-anchor="middle" x="173.09" y="-86.3" font-family="Times,serif" font-size="14.00">Group</text>
</g>
<!-- Monoid&#45;&gt;Group -->
<g id="edge3" class="edge">
<title>Monoid&#45;&gt;Group</title>
<path fill="none" stroke="black" d="M130.08,-144.76C137.25,-135.8 146.28,-124.51 154.22,-114.59"/>
<polygon fill="black" stroke="black" points="157.05,-116.66 160.56,-106.67 151.58,-112.29 157.05,-116.66"/>
</g>
<!-- Com_Group -->
<g id="node5" class="node">
<title>Com_Group</title>
<ellipse fill="none" stroke="black" cx="117.09" cy="-18" rx="55.49" ry="18"/>
<text text-anchor="middle" x="117.09" y="-14.3" font-family="Times,serif" font-size="14.00">Com_Group</text>
</g>
<!-- Com_Monoid&#45;&gt;Com_Group -->
<g id="edge4" class="edge">
<title>Com_Monoid&#45;&gt;Com_Group</title>
<path fill="none" stroke="black" d="M74.37,-72.41C81.17,-63.91 89.6,-53.37 97.16,-43.91"/>
<polygon fill="black" stroke="black" points="100.02,-45.95 103.53,-35.96 94.55,-41.58 100.02,-45.95"/>
</g>
<!-- Group&#45;&gt;Com_Group -->
<g id="edge5" class="edge">
<title>Group&#45;&gt;Com_Group</title>
<path fill="none" stroke="black" d="M160.39,-73.12C153.43,-64.42 144.65,-53.45 136.82,-43.66"/>
<polygon fill="black" stroke="black" points="139.51,-41.42 130.53,-35.8 134.05,-45.79 139.51,-41.42"/>
</g>
</g>
</svg>
