<?xml version="1.0" encoding="UTF-8" standalone="no"?>
<!DOCTYPE svg PUBLIC "-//W3C//DTD SVG 1.1//EN"
 "http://www.w3.org/Graphics/SVG/1.1/DTD/svg11.dtd">
<!-- Generated by graphviz version 2.49.3 (0)
 -->
<!-- Pages: 1 -->
<svg width="208pt" height="260pt"
 viewBox="0.00 0.00 207.99 260.00" xmlns="http://www.w3.org/2000/svg" xmlns:xlink="http://www.w3.org/1999/xlink">
<g id="graph0" class="graph" transform="scale(1 1) rotate(0) translate(4 256)">
<polygon fill="white" stroke="transparent" points="-4,4 -4,-256 203.99,-256 203.99,4 -4,4"/>
<!-- Semigroup -->
<g id="node1" class="node">
<title>Semigroup</title>
<ellipse fill="none" stroke="black" cx="111.19" cy="-234" rx="50.89" ry="18"/>
<text text-anchor="middle" x="111.19" y="-230.3" font-family="Times,serif" font-size="14.00">Semigroup</text>
</g>
<!-- Monoid -->
<g id="node2" class="node">
<title>Monoid</title>
<ellipse fill="none" stroke="black" cx="111.19" cy="-162" rx="39.79" ry="18"/>
<text text-anchor="middle" x="111.19" y="-158.3" font-family="Times,serif" font-size="14.00">Monoid</text>
</g>
<!-- Semigroup&#45;&gt;Monoid -->
<g id="edge1" class="edge">
<title>Semigroup&#45;&gt;Monoid</title>
<path fill="none" stroke="black" d="M111.19,-215.7C111.19,-207.98 111.19,-198.71 111.19,-190.11"/>
<polygon fill="black" stroke="black" points="114.7,-190.1 111.19,-180.1 107.7,-190.1 114.7,-190.1"/>
</g>
<!-- ComMonoid -->
<g id="node3" class="node">
<title>ComMonoid</title>
<ellipse fill="none" stroke="black" cx="57.19" cy="-90" rx="57.39" ry="18"/>
<text text-anchor="middle" x="57.19" y="-86.3" font-family="Times,serif" font-size="14.00">ComMonoid</text>
</g>
<!-- Monoid&#45;&gt;ComMonoid -->
<g id="edge2" class="edge">
<title>Monoid&#45;&gt;ComMonoid</title>
<path fill="none" stroke="black" d="M98.67,-144.76C92.02,-136.14 83.7,-125.36 76.27,-115.73"/>
<polygon fill="black" stroke="black" points="78.91,-113.41 70.03,-107.63 73.36,-117.69 78.91,-113.41"/>
</g>
<!-- Group -->
<g id="node4" class="node">
<title>Group</title>
<ellipse fill="none" stroke="black" cx="166.19" cy="-90" rx="33.6" ry="18"/>
<text text-anchor="middle" x="166.19" y="-86.3" font-family="Times,serif" font-size="14.00">Group</text>
</g>
<!-- Monoid&#45;&gt;Group -->
<g id="edge3" class="edge">
<title>Monoid&#45;&gt;Group</title>
<path fill="none" stroke="black" d="M123.95,-144.76C130.89,-135.93 139.61,-124.83 147.33,-115.01"/>
<polygon fill="black" stroke="black" points="150.08,-117.17 153.51,-107.15 144.58,-112.85 150.08,-117.17"/>
</g>
<!-- AbGroup -->
<g id="node5" class="node">
<title>AbGroup</title>
<ellipse fill="none" stroke="black" cx="111.19" cy="-18" rx="44.69" ry="18"/>
<text text-anchor="middle" x="111.19" y="-14.3" font-family="Times,serif" font-size="14.00">AbGroup</text>
</g>
<!-- ComMonoid&#45;&gt;AbGroup -->
<g id="edge4" class="edge">
<title>ComMonoid&#45;&gt;AbGroup</title>
<path fill="none" stroke="black" d="M69.99,-72.41C76.65,-63.78 84.92,-53.06 92.3,-43.5"/>
<polygon fill="black" stroke="black" points="95.15,-45.53 98.49,-35.47 89.61,-41.25 95.15,-45.53"/>
</g>
<!-- Group&#45;&gt;AbGroup -->
<g id="edge5" class="edge">
<title>Group&#45;&gt;AbGroup</title>
<path fill="none" stroke="black" d="M153.71,-73.12C146.78,-64.29 138.01,-53.13 130.24,-43.24"/>
<polygon fill="black" stroke="black" points="132.94,-41.01 124.01,-35.31 127.43,-45.33 132.94,-41.01"/>
</g>
</g>
</svg>
