<?xml version="1.0" encoding="UTF-8" standalone="no"?>
<!DOCTYPE svg PUBLIC "-//W3C//DTD SVG 1.1//EN"
 "http://www.w3.org/Graphics/SVG/1.1/DTD/svg11.dtd">
<!-- Generated by graphviz version 3.0.0 (0)
 -->
<!-- Title: G Pages: 1 -->
<svg width="418pt" height="44pt"
 viewBox="0.00 0.00 418.00 44.00" xmlns="http://www.w3.org/2000/svg" xmlns:xlink="http://www.w3.org/1999/xlink">
<g id="graph0" class="graph" transform="scale(1 1) rotate(0) translate(4 40)">
<title>G</title>
<polygon fill="white" stroke="transparent" points="-4,4 -4,-40 414,-40 414,4 -4,4"/>
<!-- Client -->
<g id="node1" class="node">
<title>Client</title>
<polygon fill="none" stroke="black" points="54,-36 0,-36 0,0 54,0 54,-36"/>
<text text-anchor="middle" x="27" y="-14.3" font-family="Helvetica,sans-Serif" font-size="14.00">Client</text>
</g>
<!-- VPS (iptables) -->
<g id="node2" class="node">
<title>VPS (iptables)</title>
<polygon fill="none" stroke="black" points="229,-36 126,-36 126,0 229,0 229,-36"/>
<text text-anchor="middle" x="177.5" y="-14.3" font-family="Helvetica,sans-Serif" font-size="14.00">VPS (iptables)</text>
</g>
<!-- Client&#45;&gt;VPS (iptables) -->
<g id="edge1" class="edge">
<title>Client&#45;&gt;VPS (iptables)</title>
<path fill="none" stroke="black" d="M64.3,-18C79.8,-18 98.32,-18 115.8,-18"/>
<polygon fill="black" stroke="black" points="64.21,-14.5 54.21,-18 64.21,-21.5 64.21,-14.5"/>
<polygon fill="black" stroke="black" points="115.94,-21.5 125.94,-18 115.94,-14.5 115.94,-21.5"/>
<text text-anchor="middle" x="90" y="-21.8" font-family="Helvetica,sans-Serif" font-size="14.00">Direct</text>
</g>
<!-- Spare laptop -->
<g id="node3" class="node">
<title>Spare laptop</title>
<polygon fill="none" stroke="black" points="410,-36 317,-36 317,0 410,0 410,-36"/>
<text text-anchor="middle" x="363.5" y="-14.3" font-family="Helvetica,sans-Serif" font-size="14.00">Spare laptop</text>
</g>
<!-- VPS (iptables)&#45;&gt;Spare laptop -->
<g id="edge2" class="edge">
<title>VPS (iptables)&#45;&gt;Spare laptop</title>
<path fill="none" stroke="black" d="M239.48,-18C261.2,-18 285.52,-18 306.77,-18"/>
<polygon fill="black" stroke="black" points="239.27,-14.5 229.27,-18 239.27,-21.5 239.27,-14.5"/>
<polygon fill="black" stroke="black" points="306.93,-21.5 316.93,-18 306.93,-14.5 306.93,-21.5"/>
<text text-anchor="middle" x="273" y="-21.8" font-family="Helvetica,sans-Serif" font-size="14.00">Tailscale</text>
</g>
</g>
</svg>
